<?xml version="1.0" encoding="UTF-8" standalone="no"?>
<svg
   xmlns:dc="http://purl.org/dc/elements/1.1/"
   xmlns:cc="http://creativecommons.org/ns#"
   xmlns:rdf="http://www.w3.org/1999/02/22-rdf-syntax-ns#"
   xmlns:svg="http://www.w3.org/2000/svg"
   xmlns="http://www.w3.org/2000/svg"
   id="svg514"
   version="1.1"
   height="370.544"
   width="289.611">
  <metadata
     id="metadata520">
    <rdf:RDF>
      <cc:Work
         rdf:about="">
        <dc:format>image/svg+xml</dc:format>
        <dc:type
           rdf:resource="http://purl.org/dc/dcmitype/StillImage" />
        <dc:title></dc:title>
      </cc:Work>
    </rdf:RDF>
  </metadata>
  <defs
     id="defs518" />
  <path
     id="path2"
     stroke-linecap="round"
     stroke="#000"
     fill="none"
     d="M113.894 31.724c.056.434 3.082 4.911 3.844 6.934 1.032 2.183 2.674 4.157 7.047 5.194 3.571-.368 7.193-.447 10.199-4.033l7.39-9.405 1.347-2.992c.973-2.16-1.134-4.147-3.107-4.999l-5.35-1.197c-3.124-.168-5.197-.936-11.302.6l-5.728 1.047c-2.084.771-4.867.47-4.92 4.357.109 1.486-.585 2.858.58 4.494z"
     class="tooth-11 tooth-11-parent" />
  <path
     id="path4"
     stroke-linecap="round"
     stroke="#000"
     fill="none"
     d="M119.378 37.476l-1.31-9.175c.71 0-.8-1.852 1.867-2.679 9.737-3.182 15.364-.85 16.952-.15 1.588.7 2.967 2.613 2.662 4.623-.304 2.01-.971 2.493-1.423 3.491"
     class="tooth-11" />
  <path
     id="path6"
     stroke-linecap="round"
     stroke="#000"
     fill="none"
     d="M91.429 35.605c11.503-6.337 9.146-4.488 14.07-5.896 1.716-.515 3.14-.592 3.865.382l2.67 2.252c1.814 1.914 1.693 2.32 1.923 3 .855 5.916-.133 5.842-.323 8.36-1.316 2.143-2.905 4.056-5.592 5.041-1.659.982-3.956.886-6.396.548l-4.012-.82c-1.573.198-2.929-.682-4.308-1.445-2.91-1.714-3.663-4.148-4.664-6.499-.2-1.52.315-2.867 1.5-4.052z"
     class="tooth-12 tooth-12-parent" />
  <path
     id="path8"
     stroke-linecap="round"
     stroke="#000"
     fill="none"
     d="M94.666 46.344c-1.544-2.015-4.015-3.644-1.017-7.552 2.75-1.801 4.903-2.357 7.297-3.416 2.06-.87 4.106-1.715 5.581-1.61 6.145-.495 3.615.737 5.275 1.135M107.557 37.263c.526 2.309 1.016 4.678 2.511 5.371M104.033 46.863c.217-1.966-3.199-2.798-6.01-3.819"
     class="tooth-12" />
  <path
     id="path10"
     stroke-linecap="round"
     stroke="#000"
     fill="none"
     d="M76.925 61.28c-4.661-1.306-6.844-3.693-7.34-6.818-.575-3.055.061-6.034 2.259-8.917 1.922-4.49 3.83-4.24 5.739-4.542 1.703.18 3.251.098 4.758-.052 4.557-.17 6.254 1.564 7.353 2.699 3.845 4.32 3.42 6.838 4.355 9.93.481 3.414.269 6.333-1.809 7.92-6.322 3.968-7.397 2.024-10.043 1.85-4.927-1.742-3.66-1.429-5.272-2.071z"
     class="tooth-13 tooth-13-parent" />
  <path
     id="path12"
     stroke-linecap="round"
     stroke="#000"
     fill="none"
     d="M74.04 56.843c.22-4.226.644-8.235 3.005-10.164 2.336-2.053 5.342-3.542 9.455-4.097M88.421 46.33c2.788 9.101 3.997 11.25-3.289 5.608M81.926 55.113c6.138 6.234 2.066 5.312-4.544 2.61"
     class="tooth-13" />
  <path
     id="path14"
     stroke-linecap="round"
     stroke="#000"
     fill="none"
     d="M64.288 60.69c-7.037 2.056-7.5 4.894-7.534 7.782-.358 12.705 12.494 12.49 14.983 11.514 3.915.407 6.635.029 8.775-.73 3.996-.257 5.92-2.262 6.56-5.351.584-1.659.784-3.48-.206-5.803-.723-1.298-.231-2.542-4.671-4.004-4.682-.433-6.164-1.43-8.096-2.513-2.78-2.531-6.237-1.979-9.811-.895z"
     class="tooth-14 tooth-14-parent" />
  <path
     id="path16"
     stroke-linecap="round"
     stroke="#000"
     fill="none"
     d="M70.979 60.705c.032.624.572 1.249-1.27 1.869-3.189 2.17-2.973 3.776-2.247 5.298 1.477 2.354.95 3.47-.533 3.992-4.599 3.744-3.551 4.512-4.778 6.478"
     class="tooth-14" />
  <path
     id="path18"
     stroke-linecap="round"
     stroke="#000"
     fill="none"
     d="M65.28 76.415c4.298-.511 7.758-1.938 8.717-6.095.507-2.408-1.154-3.782-3.405-4.874"
     class="tooth-14" />
  <path
     id="path20"
     stroke-linecap="round"
     stroke="#000"
     fill="none"
     d="M80.849 66.654c-5.618.472-7.425 1.682-6.702 3.167-.015 3.917 1.466 2.988 2.515 4.248M71.524 76.678c.797-.871.53-1.745.157-2.62M76.168 65.52c-1.96 1.513-2.159 2.292-2.165 2.99"
     class="tooth-14" />
  <path
     id="path22"
     stroke-linecap="round"
     stroke="#000"
     fill="none"
     d="M82.638 65.16c1.377 2.578.008 4.69.277 6.552.256 2.595-.661 4.805-3.96 6.23-2.029.96-4.49 1.155-6.696 1.296"
     class="tooth-14" />
  <path
     id="path24"
     stroke-linecap="round"
     stroke="#000"
     fill="none"
     d="M57.474 80.465c-8.431 1.01-12.43 4.659-9.877 12.21 2.688 2.772 5.132 5.748 9.695 6.954 1.617-.028 3.037.108 4.007.62 1.4.322 3.004.32 4.737.113 3.264-1.455 7.652-.245 9.49-5.076 1.518-3.866 1.26-7.27-2.398-9.792-7.229-5.073-11.202-4.646-15.654-5.029z"
     class="tooth-15 tooth-15-parent" />
  <path
     id="path26"
     stroke-linecap="round"
     stroke="#000"
     fill="none"
     d="M64.018 99.56c3.218-1.837 7.516-.299 8.94-5.845.251-1.769 1.694-3.856-1.611-7.928M59.537 80.98c-1.068 1.04-2.062 2.018-1.663 3.139-.465 1.297-.464 1.678-.54 2.156-.66 1.03-.71 1.295-.733 1.528.022 1.787.38 2.183.72 2.652.962 2.365.081 2.863-.497 3.668-.586.798-1.406.403-1.709 2.647"
     class="tooth-15" />
  <path
     id="path28"
     stroke-linecap="round"
     stroke="#000"
     fill="none"
     d="M65.803 97.201c-4.095-1.19-4.355-3.015-3.629-5.003-.431-3.199 1.121-5.06 2.21-7.233M68.145 86.4c-1.701.174-3.402.219-5.105.907M60.255 84.345c1.857 1.337 2.432 2.403 3.026 3.472M57.544 96.877c.783-.67 2.222-1.668 4.626-3.15"
     class="tooth-15" />
  <path
     id="path30"
     stroke="#000"
     fill="none"
     d="M40.4 101.936c8.541-6.22 14.837-2.627 21.134.964 1.7 1.771 3.363 3.542 5.692 5.314 7.132 5.751 5.79 9.654 1.66 12.95-2.573 2.396-5.039 4.747-6.337 6.611-1.487 1.286-2.855 2.272-4.017 2.744-5.497 2.072-7.596-.818-10.682-2.266-11.087-4.904-15.058-11.736-12.205-20.415.314-3.346 2.19-4.998 4.756-5.902z"
     class="tooth-16 tooth-16-parent" />
  <path
     id="path32"
     stroke="#000"
     fill="none"
     d="M41.714 109.483c-1.794-6.979 2.534-6.206 4.883-7.94 4.08-.824 7.499-2.829 14.33 1.254 5.087 5.941 3.566 9.277 4.21 13.465.313 4-1.117 6.43-3.06 7.435-.484 2.157-.37 4.222-4.636 6.106-3.63 2.716-6.18.38-8.863-1.345-4.038-.91-4.687-3.137-4.596-6.228-8.218-3-3.623-8.664-2.268-12.747z"
     class="tooth-16" />
  <path
     id="path34"
     stroke-linecap="round"
     stroke="#000"
     fill="none"
     d="M57.646 102.994c-.835.823-1.95.936-2.196 3.257.378 2.38-1.18 4.754-2.695 7.13-1.567 1.28-1.058 4.747-1.48 7.234 1.535 1.228 3.073 1.241 4.612 1.131l2.909 2.148"
     class="tooth-16" />
  <path
     id="path36"
     stroke-linecap="round"
     stroke="#000"
     fill="none"
     d="M43.29 110.404c1.041.947 1.819 2.04 4.731 1.947 1.66-.178 3.321-.268 4.978.622M61.63 111.26c-3.183.459-7.887.275-8.752 1.713M45.077 121.723c3.24 1.23 4.613-.061 6.319-.904M47.737 125.5l1.47-3.768"
     class="tooth-16" />
  <path
     id="path38"
     stroke-linecap="round"
     stroke="#000"
     fill="none"
     d="M28.73 143.705c-1.738-1.999-1.51-4.91-.338-8.257 4.474-8.6 12.513-10.454 25.035-3.819 3.928 1.33 7.042 3.89 9.09 6.442 2.015 2.511 3.886 3.72 2.89 8.162-2.3 7.48-6.272 13.35-17.53 12.194-4.473-.457-8.423.526-14.08-3.191-2.19-3.042-6.41-2.84-5.066-11.53z"
     class="tooth-17 tooth-17-parent" />
  <path
     id="path40"
     stroke-linecap="round"
     stroke="#000"
     fill="none"
     d="M51.954 136.62c-1.144.523-1.97.512-2.796.504-2.206-.275-3.134.71-3.408 2.337-.03 1.024.296 2.147-1.587 2.647-1.623 1.243-.814 1.81-.616 2.547a81.532 81.532 0 01-.13 2.549c-.036 4.152 1.319 4.063 2.17 5.51.513.468 1.147.903.724 1.632l.97.715"
     class="tooth-17" />
  <path
     id="path42"
     stroke-linecap="round"
     stroke="#000"
     fill="none"
     d="M44.438 131.711c.464.85.914 1.701 1.693 2.552.864.543 1.23 1.71 1.448 3.062M35.808 133.425c1.635.059 3.273.115 3.64 1.232l6.426 3.99M32.743 142.695l4.735.52c1.782.645 3.648 1.079 6.074.115M42.057 155.152l1.217-.915c-.337-2.615.282-3.008 1.224-2.648M43.546 145.063l2.552-.198c1.131.655 2.264 1.045 3.396 1.435"
     class="tooth-17" />
  <path
     id="path44"
     stroke-linejoin="round"
     stroke="#000"
     fill="none"
     d="M41.966 158.286c4.958.38 9.429 1.37 12.44 3.646 4.298 1.865 7.04 3.819 6.814 5.945 1.376 3.24.305 5.594-.501 8.043l-2.29 4.022c-1.449 2.34-4.442 3.898-9.125 4.6-5.512.768-11.025 1.687-16.527-.944-6.264-1.961-6.562-4.743-7.164-7.483-1.848-2.81-3.086-6.195-2.353-11.43.65-2.394 1.475-5.436 5.518-6.827 4.042-1.39 7.667-.67 13.188.428z"
     class="tooth-18 tooth-18-parent" />
  <path
     id="path46"
     stroke="#000"
     fill="none"
     d="M27.214 162.56c-4.602 5.482-1.449 7.897.453 10.807-.518 4.934-.363 8.726 3.618 8.265 5.87 3.51 10.15 1.626 14.816 1.052.67-.891.712-2.047 2.559-2.44 0 0 4.11-7.4 4.642-8.553.533-1.155.962-3.294-1.804-5.611 0 0-4.28-3.754-7.03-4.807-1.309-.5-2.85-.35-4.25-.62-2.873-.556-8.497-2.058-8.497-2.058-2.695-.5-4.37.671-4.507 3.966z"
     class="tooth-18" />
  <path
     id="path48"
     stroke-linecap="round"
     stroke="#000"
     fill="none"
     d="M46.117 177.485c.176-.097-2.921-1.753-5.094-2.458-1.11-.36-1.775-1.48-2.057-2.45-.581-1.999 1.725-4.534.99-6.115-.734-1.58-2.277-1.652-3.637-2.148-.91-.333-1.45-.055-2.913-.516"
     class="tooth-18" />
  <path
     id="path50"
     stroke-linejoin="round"
     stroke-linecap="round"
     stroke="#000"
     fill="none"
     d="M44.335 164.637c-1.936.478-4.395.882-4.5 1.621"
     class="tooth-18" />
  <path
     id="path52"
     stroke-linecap="round"
     stroke="#000"
     fill="none"
     d="M33.62 173.176c.782-.327 1.79-.723 3.037-.4 1.248.321 1.899.422 2.31-.505M44.189 172.588c-1.823-.063-3.817.856-5.342-.93"
     class="tooth-18" />
  <path
     id="path54"
     stroke="#000"
     fill="none"
     d="M33.867 132.605c4.712-8.546 12.42-1.751 19.91 3.918 1.532 1.545 3.478 2.516 4.113 5.31 2.308 4.925-3.416 7.73-6.109 11.098-2.692 3.367-5.472 5.047-10.336 3.749-11.376-3.52-11.81-8.134-10.042-12.969-3.592-7.156-1.159-7.532-.213-9.582.892-.413 1.784-.609 2.677-1.524z"
     class="tooth-18" />
  <path
     id="path56"
     stroke-linecap="round"
     stroke="#000"
     fill="none"
     d="M40.051 163.385c.44.912.674 1.79-.1 2.495"
     class="tooth-18" />
  <path
     style="fill:none;stroke:#000000;stroke-linecap:round"
     id="path58"
     d="m 175.145,31.758 c -0.056,0.435 -3.081,4.912 -3.844,6.934 -1.032,2.183 -2.674,4.157 -7.047,5.194 -3.571,-0.368 -7.193,-0.447 -10.198,-4.033 l -7.39,-9.405 -1.348,-2.992 c -0.973,-2.16 1.134,-4.147 3.107,-4.999 l 5.35,-1.197 c 3.124,-0.168 5.198,-0.936 11.302,0.6 l 5.728,1.047 c 2.084,0.772 4.867,0.47 4.921,4.357 -0.11,1.486 0.584,2.858 -0.58,4.494 z"
     class="tooth-21 tooth-21-parent" />
  <path
     id="path60"
     stroke-linecap="round"
     stroke="#000"
     fill="none"
     d="M169.661 37.51l1.31-9.175c-.71 0 .8-1.852-1.867-2.679-9.737-3.182-15.364-.85-16.952-.15-1.588.7-2.967 2.613-2.662 4.624.305 2.01.971 2.492 1.423 3.49"
     class="tooth-21" />
  <path
     id="path62"
     stroke-linecap="round"
     stroke="#000"
     fill="none"
     d="M197.61 35.64c-11.503-6.338-9.146-4.488-14.07-5.897-1.716-.515-3.14-.592-3.865.383l-2.67 2.252c-1.813 1.913-1.693 2.32-1.923 2.999-.854 5.916.133 5.842.324 8.36 1.315 2.143 2.904 4.056 5.592 5.041 1.658.982 3.955.886 6.395.548l4.013-.82c1.573.198 2.928-.682 4.307-1.445 2.91-1.714 3.663-4.148 4.664-6.499.201-1.52-.314-2.867-1.5-4.052z"
     class="tooth-22 tooth-22-parent" />
  <path
     id="path64"
     stroke-linecap="round"
     stroke="#000"
     fill="none"
     d="M194.373 46.378c1.544-2.015 4.016-3.643 1.017-7.552-2.75-1.801-4.903-2.357-7.297-3.416-2.06-.87-4.105-1.714-5.58-1.61-6.146-.494-3.616.737-5.276 1.135M181.482 37.297c-.526 2.309-1.016 4.678-2.51 5.371M185.006 46.898c-.217-1.967 3.2-2.799 6.01-3.82"
     class="tooth-22" />
  <path
     id="path66"
     stroke-linecap="round"
     stroke="#000"
     fill="none"
     d="M212.114 61.313c4.661-1.305 6.844-3.692 7.34-6.817.575-3.055-.06-6.034-2.259-8.917-1.922-4.49-3.83-4.24-5.739-4.542-1.703.18-3.25.098-4.758-.052-4.557-.17-6.254 1.564-7.352 2.699-3.845 4.32-3.42 6.838-4.356 9.93-.48 3.414-.269 6.333 1.81 7.92 6.321 3.968 7.396 2.024 10.042 1.85 4.927-1.742 3.66-1.429 5.272-2.07z"
     class="tooth-23 tooth-23-parent" />
  <path
     id="path68"
     stroke-linecap="round"
     stroke="#000"
     fill="none"
     d="M215 56.877c-.221-4.226-.645-8.235-3.006-10.163-2.336-2.054-5.341-3.543-9.455-4.098M200.618 46.364c-2.788 9.102-3.997 11.25 3.289 5.608M207.114 55.147c-6.138 6.234-2.067 5.312 4.543 2.611"
     class="tooth-23" />
  <path
     id="path70"
     stroke-linecap="round"
     stroke="#000"
     fill="none"
     d="M224.752 60.724c7.037 2.057 7.5 4.894 7.533 7.783.358 12.705-12.493 12.49-14.982 11.513-3.916.407-6.636.029-8.776-.73-3.996-.257-5.92-2.261-6.559-5.35-.585-1.66-.784-3.48.205-5.804.723-1.298.231-2.542 4.671-4.003 4.682-.433 6.164-1.43 8.096-2.514 2.78-2.531 6.237-1.979 9.812-.895z"
     class="tooth-24 tooth-24-parent" />
  <path
     id="path72"
     stroke-linecap="round"
     stroke="#000"
     fill="none"
     d="M218.06 60.739c-.032.624-.571 1.249 1.27 1.869 3.19 2.17 2.973 3.776 2.247 5.298-1.476 2.354-.95 3.47.533 3.992 4.6 3.744 3.552 4.512 4.778 6.479"
     class="tooth-24" />
  <path
     id="path74"
     stroke-linecap="round"
     stroke="#000"
     fill="none"
     d="M223.76 76.45c-4.298-.512-7.759-1.938-8.718-6.096-.507-2.407 1.154-3.782 3.405-4.874"
     class="tooth-24" />
  <path
     id="path76"
     stroke-linecap="round"
     stroke="#000"
     fill="none"
     d="M208.19 66.688c5.618.473 7.425 1.682 6.702 3.167.015 3.917-1.465 2.988-2.515 4.248M217.515 76.713c-.797-.872-.53-1.746-.156-2.62M212.871 65.554c1.961 1.514 2.159 2.292 2.165 2.99"
     class="tooth-24" />
  <path
     id="path78"
     stroke-linecap="round"
     stroke="#000"
     fill="none"
     d="M206.402 65.194c-1.377 2.578-.008 4.69-.277 6.552-.257 2.595.66 4.805 3.96 6.23 2.028.96 4.49 1.155 6.695 1.296M225.022 99.594c-3.219-1.837-7.517-.298-8.94-5.845-.252-1.768-1.694-3.856 1.61-7.927"
     class="tooth-24" />
  <path
     id="path80"
     stroke-linecap="round"
     stroke="#000"
     fill="none"
     d="M231.565 80.5c8.432 1.009 12.43 4.658 9.878 12.21-2.689 2.772-5.133 5.747-9.696 6.953-1.617-.028-3.037.108-4.007.62-1.4.322-3.004.32-4.737.113-3.264-1.455-7.652-.245-9.49-5.076-1.518-3.866-1.259-7.27 2.398-9.792 7.229-5.073 11.202-4.646 15.654-5.029z"
     class="tooth-25 tooth-25-parent" />
  <path
     id="path82"
     stroke-linecap="round"
     stroke="#000"
     fill="none"
     d="M229.502 81.013c1.069 1.04 2.062 2.02 1.663 3.14.466 1.297.464 1.678.54 2.156.66 1.03.71 1.295.734 1.528-.023 1.787-.38 2.183-.72 2.652-.963 2.365-.082 2.863.496 3.668.587.798 1.406.403 1.71 2.647M223.236 97.235c4.095-1.19 4.355-3.015 3.629-5.003.431-3.199-1.121-5.059-2.21-7.232M220.895 86.435c1.7.173 3.401.218 5.104.906M228.784 84.379c-1.857 1.337-2.432 2.403-3.026 3.472M231.495 96.911c-.783-.67-2.222-1.668-4.626-3.15"
     class="tooth-25" />
  <path
     id="path84"
     stroke="#000"
     fill="none"
     d="M248.638 101.97c-8.54-6.22-14.836-2.627-21.133.964-1.7 1.771-3.363 3.542-5.692 5.314-7.131 5.751-5.79 9.655-1.66 12.95 2.574 2.396 5.039 4.747 6.337 6.612 1.487 1.285 2.855 2.271 4.017 2.743 5.497 2.072 7.596-.818 10.682-2.266 11.088-4.904 15.058-11.735 12.205-20.414-.314-3.347-2.19-5-4.756-5.902z"
     class="tooth-26 tooth-26-parent" />
  <path
     id="path86"
     stroke="#000"
     fill="none"
     d="M247.326 109.517c1.794-6.979-2.535-6.206-4.884-7.94-4.08-.824-7.498-2.829-14.33 1.254-5.087 5.941-3.566 9.277-4.209 13.465-.314 4 1.117 6.43 3.06 7.435.484 2.157.37 4.222 4.635 6.106 3.63 2.716 6.181.38 8.863-1.345 4.038-.91 4.687-3.137 4.597-6.228 8.218-3 3.622-8.663 2.268-12.747z"
     class="tooth-26" />
  <path
     id="path88"
     stroke-linecap="round"
     stroke="#000"
     fill="none"
     d="M231.393 103.028c.835.823 1.95.936 2.196 3.257-.377 2.38 1.18 4.755 2.695 7.13 1.567 1.28 1.058 4.747 1.48 7.234-1.535 1.228-3.073 1.242-4.612 1.132l-2.909 2.147"
     class="tooth-26" />
  <path
     id="path90"
     stroke-linecap="round"
     stroke="#000"
     fill="none"
     d="M245.75 110.438c-1.042.947-1.82 2.04-4.732 1.947-1.66-.178-3.32-.268-4.978.623M227.41 111.294c3.183.459 7.886.275 8.751 1.713M243.963 121.757c-3.241 1.23-4.614-.06-6.32-.904M241.302 125.534l-1.47-3.768"
     class="tooth-26" />
  <path
     id="path92"
     stroke-linecap="round"
     stroke="#000"
     fill="none"
     d="M260.308 143.74c1.739-2 1.512-4.91.339-8.258-4.474-8.6-12.512-10.454-25.035-3.819-3.928 1.33-7.042 3.89-9.09 6.442-2.015 2.512-3.886 3.72-2.89 8.162 2.3 7.481 6.272 13.35 17.53 12.194 4.473-.457 8.423.526 14.08-3.191 2.19-3.042 6.41-2.84 5.066-11.53z"
     class="tooth-27 tooth-27-parent" />
  <path
     id="path94"
     stroke="#000"
     fill="none"
     d="M255.172 132.64c-4.711-8.547-12.42-1.752-19.909 3.917-1.533 1.546-3.478 2.517-4.113 5.31-2.309 4.925 3.415 7.73 6.108 11.098 2.692 3.367 5.472 5.047 10.336 3.749 11.376-3.52 11.811-8.134 10.042-12.969 3.593-7.156 1.16-7.532.213-9.582-.892-.413-1.783-.608-2.677-1.523z"
     class="tooth-27" />
  <path
     id="path96"
     stroke-linecap="round"
     stroke="#000"
     fill="none"
     d="M237.085 136.655c1.144.522 1.97.511 2.796.503 2.207-.274 3.134.71 3.408 2.338.03 1.023-.296 2.146 1.588 2.646 1.623 1.243.813 1.81.615 2.548.044 1.156.087 1.933.13 2.548.036 4.152-1.319 4.063-2.17 5.51-.513.468-1.147.903-.724 1.632l-.97.716"
     class="tooth-27" />
  <path
     id="path98"
     stroke-linecap="round"
     stroke="#000"
     fill="none"
     d="M244.601 131.745c-.463.85-.914 1.701-1.692 2.553-.865.542-1.23 1.71-1.449 3.06M253.231 133.46c-1.635.058-3.273.114-3.64 1.23l-6.426 3.99M256.297 142.73l-4.736.52c-1.781.644-3.647 1.078-6.073.114M246.982 155.186l-1.217-.915c.337-2.615-.281-3.008-1.223-2.647M245.493 145.097l-2.551-.198c-1.132.655-2.265 1.045-3.397 1.435"
     class="tooth-27" />
  <path
     id="path100"
     stroke-linejoin="round"
     stroke="#000"
     fill="none"
     d="M247.073 158.32c-4.958.38-9.428 1.37-12.44 3.646-4.298 1.865-7.04 3.82-6.814 5.945-1.375 3.24-.304 5.594.501 8.043l2.29 4.022c1.449 2.34 4.443 3.899 9.125 4.601 5.513.767 11.026 1.687 16.527-.945 6.264-1.961 6.562-4.743 7.164-7.483 1.849-2.81 3.086-6.195 2.353-11.43-.65-2.394-1.475-5.436-5.518-6.827-4.042-1.39-7.667-.669-13.188.428z"
     class="tooth-28 tooth-28-parent" />
  <path
     id="path102"
     stroke="#000"
     fill="none"
     d="M261.825 162.595c4.602 5.481 1.449 7.896-.452 10.806.517 4.934.362 8.727-3.619 8.265-5.869 3.51-10.15 1.626-14.816 1.052-.67-.891-.712-2.047-2.558-2.44 0 0-4.11-7.4-4.643-8.553-.532-1.154-.962-3.294 1.805-5.61 0 0 4.28-3.755 7.03-4.807 1.308-.501 2.848-.35 4.25-.621 2.872-.556 8.496-2.058 8.496-2.058 2.695-.5 4.37.672 4.507 3.966z"
     class="tooth-28" />
  <path
     id="path104"
     stroke-linecap="round"
     stroke="#000"
     fill="none"
     d="M242.922 177.52c-.176-.098 2.922-1.754 5.094-2.458 1.11-.36 1.775-1.48 2.057-2.451.581-1.999-1.725-4.534-.99-6.115.734-1.58 2.278-1.651 3.637-2.148.91-.333 1.45-.055 2.914-.516"
     class="tooth-28" />
  <path
     id="path106"
     stroke-linejoin="round"
     stroke-linecap="round"
     stroke="#000"
     fill="none"
     d="M244.704 164.671c1.936.479 4.395.883 4.5 1.621"
     class="tooth-28" />
  <path
     id="path108"
     stroke-linecap="round"
     stroke="#000"
     fill="none"
     d="M255.42 173.21c-.783-.327-1.79-.723-3.038-.4-1.247.321-1.899.422-2.31-.505M244.85 172.622c1.824-.063 3.817.856 5.342-.93M248.988 163.419c-.44.912-.674 1.79.1 2.496"
     class="tooth-28" />
  <path
     id="path110"
     stroke="#000"
     fill="none"
     d="M160.55 334.147c1.12 2.066 1.914 4.352 3.958 5.794.917.771 1.707 1.758.688 5.801-1.059 1.685-2.87 2.67-5.717 2.696-2.296-.362-4.272-.879-7.883-.607-1.738-.352-3.322.12-5.434-2.234-.697-1.112-1.784-1.82-.017-5.49l5.408-6.065c1.468-.917 1.628-2.329 5.048-2.506 2.674.068 3.176 1.42 3.949 2.611z"
     class="tooth-31 tooth-31-parent" />
  <path
     id="path112"
     stroke="#000"
     fill="none"
     d="M164.079 345.183c-1.476.21-2.874.612-4.535.197l-2.676.193c-1.883.234-3.503.022-5.205-.05-2.58-.114-5.238-.196-4.54-1.613"
     class="tooth-31" />
  <path
     id="path114"
     stroke="#000"
     fill="none"
     d="M176.896 330.68c1.903 2.325 7.182 4.643 1.211 6.985M172.442 333.123l-1.321 5.369c-.86 2.584-1.73 1.52-2.602.007"
     class="tooth-32" />
  <path
     id="path116"
     stroke="#000"
     fill="none"
     d="M183.675 335.157c-.136 1.895.075 3.976-2.737 4.436-2.39.692-5.39 1.385-6.313 2.073-3.957 1.834-4.327.874-5.945.887"
     class="tooth-32" />
  <path
     id="path118"
     stroke="#000"
     fill="none"
     d="M169.159 329.137c1.412-3.311 4.863-3.35 7.206-1.763l3.357 3.55 3.95 3.173c.574 1.485 2.12 1.393.318 6.737-1.083 2.891-3.261 4.183-5.933 4.755-3.425.826-6.358.295-8.999-1.04-1.8-1.557-4.65-2.291-3.884-5.857.763-1.604.8-1.979 2.437-5.06.516-1.491 1.034-2.227 1.548-4.495z"
     class="tooth-32 tooth-32-parent" />
  <path
     id="path120"
     stroke="#000"
     fill="none"
     d="M195.67 319.158c-4.975-.586-9.33-.606-10.178 2.58l-2.508 6.246c-1.804 4.76.09 3.796.388 5.302l3.729 3.673c1.425 1.21 2.96 2.356 6.327 2.42 4.936-.154 9.93-.22 10.984-6.201l.425-6.99c-1.024-3.339-2.144-6.631-9.167-7.03z"
     class="tooth-33 tooth-33-parent" />
  <path
     id="path122"
     stroke="#000"
     fill="none"
     d="M201.784 324.76c-1.463 3.89-2.38 8.35-6.886 9.062-3.505 1.342-7.089 3.502-10.04-.914"
     class="tooth-33" />
  <path
     id="path124"
     stroke="#000"
     fill="none"
     d="M186.487 330.784c1.782.889 3.634 1.932 3.864-.57.323-2.608-1.02-3.81-1.579-5.675M198.661 324.705c-.417-1.556-1.782-2.743-4.768-3.297M197.11 328.202c-1.013.812-2.031.151-3.055-2.364-.533-1.913-1.477-2.428-2.389-3.052"
     class="tooth-33" />
  <path
     id="path126"
     stroke="#000"
     fill="none"
     d="M219.945 307.5c2.895 3.35 3.59 5.752 3.296 7.73-.866 3.44-1.314 7.133-5.624 8.497-6.878 1.923-8.359.327-11.154-.412-3.197-1.305-5.712-2.94-7.524-4.913-1.394-.808-1.29-1.619-1.346-2.43.215-1.507-.171-2.524-.31-3.743-.21-2.365 1.007-4.015 1.692-5.931 2.028-1.386 3.514-3.289 6.83-3.447l5.724-.137c3.526-.155 5.932 2.412 8.416 4.786z"
     class="tooth-34 tooth-34-parent" />
  <path
     id="path128"
     stroke="#000"
     fill="none"
     d="M218.46 308.19a171.965 171.965 0 01-2.963 3.375c-.36.534-.056.91-.143 1.747.43 2.173-.373 2.032-1.107 2.499-.75.487-1.52.942-2.077 1.751-.64 1.623-1.548 1.262-2.374 1.503l-3.419.507c-2.712.685-3.138-.365-4.61-.427M202.573 315.524c-.178.829.462 1.753-.959 2.436"
     class="tooth-34" />
  <path
     id="path130"
     stroke="#000"
     fill="none"
     d="M209.936 316.444l-6.34-6.35c-1.331-1.351-2.35-1.678-2.45 1.004M210.96 310.764c-.622-1.6-2.369-3.198-5.369-4.793 1.162.34 2.321.689 3.867.055 1.832-.754 2.705.113 3.793.615"
     class="tooth-34" />
  <path
     id="path132"
     stroke="#000"
     fill="none"
     d="M218.688 285.852c-7.299 3.044-7.192 4.681-7.413 7.004.553 2.783.405 3.818.388 5.178-.098 2.86 2.024 3.612 3.362 5.109 4.289 3.602 6.574 2.438 9.6 3.036a62.504 62.504 0 006.093-1.074c4.539-.924 4.142-2.355 5.863-3.57 2.206-2.483 2.4-5.658 1.235-9.298-.956-2.166-2.895-3.786-4.924-5.355l-4.988-2.11c-3.83-1.33-8.216.494-9.216 1.08z"
     class="tooth-35 tooth-35-parent" />
  <path
     id="path134"
     stroke="#000"
     fill="none"
     d="M225.528 285.65c1.59.268 3.514.467 4.174 3.422-.014 1.286.478 2.287 1.05 3.243.693 3.082-1.115 5.122-2.727 7.243-1.253 1.774-2.802 1.951-4.305 2.38-1.64.727-2.869.24-3.722-1.364-.522-.915-.63-2.267-1.866-2.43-.559-.826-.633-1.518-.602-2.182.703-1.108.133-2.64-.087-4.055 2.886-.122 3.595-2.06 3.927-4.314 1.343-.427 2.631-.576 4.158-1.943z"
     class="tooth-35" />
  <path
     id="path136"
     stroke="#000"
     fill="none"
     d="M222.076 299.26c-1.712-1.302-1.68-3.583-1.654-5.862 1.052-3.822 2.96-5.648 6.007-4.818M218.797 296.833c.134-1.96.846-2.839 1.774-3.31M223.08 287.465l-.218 1.747"
     class="tooth-35" />
  <path
     id="path138"
     stroke="#000"
     fill="none"
     d="M231.896 253.69c-1.736-.453-3.644.426-5.571 1.448l-2.595 2.501c-1.828 1.46-2.594 2.918-2.44 4.373.167 2.537-.638 5.076-2.652 7.618-1.289 3.119-2.13 6.133.1 8.423 1.362 2.08 3.018 4.06 6.337 5.477 3.47 1.2 6.53 2.836 10.716 3.283 2.736.177 4.958.933 9.366-.77l6.012-3.382c1.012-.622 1.976-.97 3.553-4.812.516-3.57 2.498-6.99.115-10.857l-3.815-7.354c-1.803-1.89-3-3.967-6.856-5.226-2.247-.608-3.756-1.557-8.033-1.23z"
     class="tooth-36 tooth-36-parent" />
  <path
     id="path140"
     stroke="#000"
     fill="none"
     d="M225.81 257.198c-.916 1.603-2.344 3.208-2.363 4.81-.464 3.231-1.71 5.482-2.95 7.743-.725 1.575-1.849 2.744-.874 6.054.693 2.076 1.337 4.17 4.923 5.105l6.179 2.295c1.76.695 4.149.594 6.692.297 2.476-.746 4.954-.714 7.423-3.635.532-.872.844-2.11.582-4.306M246.606 273.936c1.191.012 2.116-.326 1.927-2.126-.277-3.417.283-6.906-1.817-10.166 0-1.898.145-3.873-1.576-4.8-2.277-1.395-3.367-3.79-8.188-3.04-2.38.443-3.961.465-4.758.073"
     class="tooth-36" />
  <path
     id="path142"
     stroke="#000"
     fill="none"
     d="M232.355 257.558c.884 1.874 1.427 3.64 3.587 5.92-.879 2.44-2.135 3.314-3.407 4.125-.318.689-.83.352-.583 3.994-.311 3.495-3.025 4.698-4.588 6.998M241.474 273.136c-3.127-1.278-6.255-2.972-9.376-2.35M224.276 265.874c2.296 2.971 5.085 2.772 7.743 3.415M228.873 261.808c1.846 1.746 3.676 3.495 3.587 5.733M245.077 260.462c-2.121 2.105-5.026 3.295-9.135 3.078"
     class="tooth-36" />
  <path
     id="path144"
     stroke="#000"
     fill="none"
     d="M249.643 222.517c2.772 1.082 5.601 1.769 8.19 4.1 2.145 1.418 3.74 3.97 4.118 9.038.18 3.565 1.21 7.038-1.601 10.923-2.414 1.707-.935 2.288-7.493 5.195-3.379 1.187-5.804 3.806-10.997 2.27-2.512-.597-3.36-.361-7.664-1.855-1.823-.348-3.333-1.226-4.173-3.235-.905-1.3-1.661-3.105-2.174-5.736.176-2.272.584-3.207.953-4.37.59-3.055.368-4.327-.017-5.24-.04-1.54.326-3.079 1.473-4.62.602-1.667.999-3.242 4.52-5.064 3.205-2.023 5.285-3.544 14.865-1.406z"
     class="tooth-37 tooth-37-parent" />
  <path
     id="path146"
     stroke="#000"
     fill="none"
     d="M243.563 251.918c-1.252-.502-1.266-1.378-5.059-1.112-.917-.1-1.834-.114-2.754-1.18l-2.01-1.056-1.715-1.244c-1.337-1.22-1.647-2.538-1.202-3.928.235-1.542.61-3.402.286-3.682-.176-.956.175-2.506.582-4.119-.186-2.081-1.946-1.791.348-7.613.15-1.24.931-1.875 2.373-1.877 1.174-.194 1.49-.648 2.97-1.629 1.051-.522 1.595-1.043 3.935-1.568 1.785.19 3.568-.308 5.356.924l3.13 2.364c2.524 1.756 2.794 2.729 2.985 3.675.702 1.413.428 2.827.162 4.242-.06 1.206-.554 2.204-1.999 2.75.694.694 1.473 1.027 1.795 3.303.74 3.952-.398 4.965-1.17 6.554-1.505 1.836-3.013 3.22-4.52 4.752"
     class="tooth-37" />
  <path
     id="path148"
     stroke="#000"
     fill="none"
     d="M239.397 227.032c1.355.776 2.418 1.984 2.986 3.924-.244 1.518-.663 2.744-1.103 3.934-.37 1.64-1.393 1.549-.875 5.555.929.756 1.159 1.318.898 1.745-1.68 3.002-1.094 5.655 1.586 7.982"
     class="tooth-37" />
  <path
     id="path150"
     stroke="#000"
     fill="none"
     d="M236.855 246.567c.826-1.505 1.766-2.961 4.152-3.815.33-.852 1.45-1.19 3.566-.882M247.976 236.56c-3.375-.236-6.34-.272-7.358.64M232.146 238.279c2.64-.616 4.465-1.828 8.545-1.392M233.104 235.532l3.648 1.614M247.658 229.697c-2.422.4-4.116.8-5.35 1.197M244.45 226.023c-.962 1.583-2.165 3.166-1.993 4.746"
     class="tooth-37" />
  <path
     id="path152"
     stroke="#000"
     fill="none"
     d="M260.026 214.383c.461-2.71 2.525-2.969.864-8.924-.865-4.248-3.347-7.758-8.952-9.838-3.393-.406-6.486-2.436-10.409.023-1.143.839-1.995 1.286-2.746 1.628-1.559 1.363-4.59 1.443-6.075 6.627 0 1.976.575 2.74-.5 6.99-.34 1.637-1.33 2.663-.204 5.678 1.213 1.394 1.103 2.87 4.845 4.107 1.027.796 9.186 1.547 11.826 1.471 2.64-.075 2.508.681 6.535-2.51 1.597-1.691 3.047-2.378 4.816-5.251z"
     class="tooth-38 tooth-38-parent" />
  <path
     id="path154"
     stroke="#000"
     fill="none"
     d="M241.313 197.766c3.018-3.776 6.386-2.097 9.816.54 1.949 1.965 2.551 4.035 2.324 6.171-.084 1.283-.75 2.15-2.223 2.439.973.456 1.361 1.306 1.346 2.43l-1.318 6.492c-1.257 2.675-2.255 2.66-3.335 3.501-.577.245-1.16.484-1.932.566-1.066-.302-2.132-.487-3.206-3.05.908-.245-2.863-1.462-.086-3.869.894-.82-2.13-3.48-.39-5.676.89-2.417 1.738-4.505 2.437-5.434-1.88-.257-1.319-1.69-1.941-2.554M246.975 201.372l-2.23.504M238.218 206.82c1.182.446 2.204 1.205 3.943.552M245.455 214.79c-1.389-.18-2.429-.772-2.832-2.115M248.033 206.86c-1.845-.298-3.876-1.216-5.354-.3M242.197 219.102c-1.175-.03-2.285.053-3.644-.304-1.942-1.82-2.639-1.823-3.874-2.612-.232-.058-2.68-2.198-.91-5.426.979-1.652 1.216-2.222.808-3.434.96-2.823.44-3.46.653-5.18"
     class="tooth-38" />
  <path
     id="path156"
     stroke="#000"
     fill="none"
     d="M128.49 334.113c-1.121 2.066-1.915 4.352-3.96 5.794-.916.771-1.706 1.758-.686 5.801 1.058 1.685 2.87 2.67 5.716 2.696 2.296-.363 4.273-.879 7.883-.607 1.738-.352 3.323.12 5.434-2.234.698-1.112 1.784-1.82.017-5.49l-5.408-6.065c-1.467-.917-1.628-2.33-5.048-2.507-2.674.07-3.176 1.42-3.948 2.612z"
     class="tooth-41 tooth-41-parent" />
  <path
     id="path158"
     stroke="#000"
     fill="none"
     d="M124.96 345.15c1.477.209 2.874.611 4.535.196l2.676.193c1.884.234 3.503.022 5.205-.05 2.58-.114 5.238-.196 4.54-1.613"
     class="tooth-41" />
  <path
     id="path160"
     stroke="#000"
     fill="none"
     d="M119.88 329.103c-1.412-3.311-4.862-3.35-7.206-1.763l-3.356 3.55-3.95 3.172c-.575 1.486-2.12 1.394-.32 6.738 1.084 2.89 3.263 4.182 5.934 4.755 3.426.826 6.359.295 9-1.04 1.8-1.557 4.649-2.292 3.884-5.857-.764-1.604-.8-1.979-2.438-5.06-.516-1.491-1.034-2.227-1.547-4.495z"
     class="tooth-42 tooth-42-parent" />
  <path
     id="path162"
     stroke="#000"
     fill="none"
     d="M112.144 330.646c-1.904 2.325-7.183 4.643-1.212 6.985M116.597 333.089l1.321 5.369c.86 2.584 1.73 1.52 2.603.007"
     class="tooth-42" />
  <path
     id="path164"
     stroke="#000"
     fill="none"
     d="M105.364 335.123c.136 1.895-.075 3.976 2.737 4.436 2.39.692 5.39 1.385 6.313 2.073 3.958 1.834 4.327.874 5.945.886"
     class="tooth-42" />
  <path
     id="path166"
     stroke="#000"
     fill="none"
     d="M93.37 319.124c4.974-.587 9.329-.606 10.177 2.58l2.508 6.245c1.804 4.76-.09 3.797-.388 5.303l-3.729 3.673c-1.425 1.21-2.96 2.356-6.327 2.42-4.936-.154-9.93-.22-10.984-6.202l-.424-6.989c1.023-3.34 2.144-6.631 9.166-7.03z"
     class="tooth-43 tooth-43-parent" />
  <path
     id="path168"
     stroke="#000"
     fill="none"
     d="M87.255 324.726c1.463 3.89 2.38 8.349 6.886 9.062 3.505 1.341 7.089 3.502 10.04-.914"
     class="tooth-43" />
  <path
     id="path170"
     stroke="#000"
     fill="none"
     d="M102.552 330.75c-1.781.888-3.634 1.932-3.864-.57-.323-2.609 1.02-3.81 1.579-5.675M90.378 324.67c.417-1.556 1.782-2.742 4.769-3.296M91.929 328.168c1.013.811 2.031.15 3.055-2.364.533-1.913 1.477-2.429 2.389-3.052"
     class="tooth-43" />
  <path
     id="path172"
     stroke="#000"
     fill="none"
     d="M69.094 307.466c-2.895 3.349-3.59 5.752-3.296 7.73.866 3.44 1.314 7.132 5.624 8.497 6.879 1.923 8.36.327 11.154-.412 3.198-1.305 5.712-2.94 7.524-4.913 1.394-.808 1.29-1.62 1.346-2.43-.215-1.507.171-2.524.31-3.743.21-2.365-1.006-4.015-1.692-5.931-2.028-1.386-3.514-3.289-6.83-3.447l-5.724-.137c-3.526-.155-5.931 2.412-8.416 4.786z"
     class="tooth-44 tooth-44-parent" />
  <path
     id="path174"
     stroke="#000"
     fill="none"
     d="M70.579 308.155a171.868 171.868 0 002.963 3.376c.36.534.056.91.143 1.747-.43 2.173.373 2.032 1.108 2.498.75.488 1.519.943 2.076 1.752.64 1.622 1.548 1.262 2.375 1.503l3.418.506c2.712.685 3.138-.364 4.61-.426M86.466 315.49c.179.829-.462 1.753.96 2.436"
     class="tooth-44" />
  <path
     id="path176"
     stroke="#000"
     fill="none"
     d="M79.103 316.41l6.34-6.35c1.332-1.351 2.35-1.678 2.45 1.003M78.08 310.73c.62-1.6 2.368-3.198 5.368-4.793-1.162.34-2.32.688-3.866.055-1.832-.754-2.706.113-3.794.615"
     class="tooth-44" />
  <path
     id="path178"
     stroke="#000"
     fill="none"
     d="M70.35 285.818c7.3 3.044 7.193 4.681 7.414 7.004-.553 2.783-.405 3.818-.388 5.178.099 2.86-2.024 3.612-3.362 5.109-4.289 3.601-6.574 2.437-9.6 3.036a62.515 62.515 0 01-6.093-1.074c-4.539-.924-4.142-2.356-5.863-3.57-2.206-2.484-2.4-5.658-1.234-9.299.955-2.165 2.894-3.785 4.923-5.355l4.988-2.11c3.83-1.329 8.216.495 9.216 1.08z"
     class="tooth-45 tooth-45-parent" />
  <path
     id="path180"
     stroke="#000"
     fill="none"
     d="M63.512 285.616c-1.59.268-3.515.467-4.175 3.422.014 1.286-.478 2.287-1.05 3.242-.692 3.082 1.115 5.123 2.728 7.244 1.252 1.774 2.802 1.95 4.304 2.38 1.64.727 2.869.24 3.722-1.364.522-.916.63-2.268 1.866-2.43.559-.826.633-1.519.602-2.182-.703-1.108-.133-2.64.087-4.055-2.886-.122-3.595-2.06-3.927-4.314-1.343-.427-2.631-.576-4.157-1.943z"
     class="tooth-45" />
  <path
     id="path182"
     stroke="#000"
     fill="none"
     d="M66.963 299.225c1.712-1.3 1.68-3.582 1.654-5.861-1.051-3.822-2.959-5.648-6.007-4.818M70.242 296.799c-.134-1.96-.845-2.839-1.774-3.31M65.96 287.43l.217 1.748"
     class="tooth-45" />
  <path
     id="path184"
     stroke="#000"
     fill="none"
     d="M57.143 253.656c1.736-.453 3.645.426 5.572 1.448l2.594 2.501c1.828 1.46 2.594 2.918 2.44 4.373-.166 2.537.638 5.076 2.653 7.618 1.288 3.119 2.13 6.132-.101 8.423-1.362 2.079-3.017 4.06-6.337 5.476-3.47 1.202-6.53 2.836-10.716 3.284-2.736.177-4.958.933-9.366-.77l-6.011-3.382c-1.013-.622-1.977-.97-3.554-4.812-.516-3.57-2.497-6.99-.115-10.857l3.815-7.354c1.804-1.89 3-3.967 6.856-5.226 2.247-.608 3.756-1.557 8.034-1.23z"
     class="tooth-46 tooth-46-parent" />
  <path
     id="path186"
     stroke="#000"
     fill="none"
     d="M63.229 257.164c.917 1.603 2.344 3.208 2.364 4.81.463 3.231 1.71 5.482 2.95 7.743.724 1.575 1.848 2.744.873 6.054-.692 2.076-1.337 4.17-4.923 5.105l-6.178 2.295c-1.76.695-4.15.594-6.693.297-2.476-.747-4.954-.714-7.423-3.635-.531-.872-.843-2.11-.581-4.306M42.433 273.902c-1.191.012-2.116-.326-1.926-2.126.276-3.417-.283-6.906 1.816-10.166 0-1.898-.144-3.873 1.576-4.8 2.278-1.395 3.367-3.79 8.188-3.04 2.38.443 3.962.465 4.758.073"
     class="tooth-46" />
  <path
     id="path188"
     stroke="#000"
     fill="none"
     d="M56.685 257.524c-.885 1.874-1.428 3.64-3.587 5.92.878 2.44 2.135 3.314 3.407 4.125.317.689.83.352.582 3.994.311 3.495 3.025 4.697 4.588 6.998M47.566 273.102c3.126-1.278 6.254-2.972 9.375-2.35M64.763 265.84c-2.296 2.971-5.085 2.772-7.743 3.414M60.166 261.774c-1.846 1.746-3.676 3.495-3.587 5.732M43.962 260.428c2.122 2.105 5.026 3.295 9.135 3.078"
     class="tooth-46" />
  <path
     id="path190"
     stroke="#000"
     fill="none"
     d="M39.397 222.483c-2.772 1.082-5.602 1.769-8.192 4.1-2.144 1.417-3.74 3.969-4.117 9.038-.18 3.564-1.21 7.038 1.602 10.922 2.413 1.708.935 2.289 7.493 5.196 3.378 1.187 5.803 3.806 10.996 2.27 2.512-.597 3.36-.362 7.664-1.855 1.823-.349 3.333-1.226 4.173-3.235.905-1.3 1.661-3.106 2.174-5.736-.176-2.272-.584-3.207-.952-4.37-.59-3.055-.369-4.327.016-5.24.04-1.54-.326-3.08-1.473-4.62-.602-1.667-.999-3.242-4.519-5.064-3.206-2.023-5.286-3.544-14.865-1.406z"
     class="tooth-47 tooth-47-parent" />
  <path
     id="path192"
     stroke="#000"
     fill="none"
     d="M45.476 251.884c1.253-.502 1.267-1.378 5.059-1.112.917-.1 1.834-.115 2.754-1.18l2.011-1.056 1.714-1.244c1.337-1.22 1.648-2.538 1.202-3.928-.235-1.542-.61-3.402-.286-3.682.177-.956-.175-2.507-.582-4.12.187-2.08 1.946-1.79-.348-7.612-.15-1.24-.931-1.876-2.373-1.877-1.174-.194-1.49-.648-2.97-1.629-1.05-.522-1.595-1.043-3.935-1.568-1.785.19-3.567-.308-5.356.924l-3.13 2.364c-2.523 1.755-2.793 2.729-2.985 3.675-.701 1.412-.427 2.827-.162 4.242.06 1.206.554 2.204 1.999 2.75-.694.694-1.473 1.027-1.795 3.303-.74 3.952.398 4.965 1.17 6.554 1.505 1.836 3.013 3.22 4.52 4.751"
     class="tooth-47" />
  <path
     id="path194"
     stroke="#000"
     fill="none"
     d="M49.643 226.998c-1.356.776-2.42 1.984-2.987 3.924.244 1.518.663 2.743 1.103 3.933.371 1.642 1.393 1.55.875 5.555-.929.757-1.158 1.32-.897 1.745 1.679 3.003 1.093 5.655-1.587 7.983"
     class="tooth-47" />
  <path
     id="path196"
     stroke="#000"
     fill="none"
     d="M52.184 246.533c-.826-1.505-1.766-2.961-4.152-3.815-.33-.852-1.45-1.19-3.566-.882M41.063 236.525c3.376-.235 6.341-.272 7.358.64M56.894 238.245c-2.641-.616-4.466-1.828-8.546-1.392M55.936 235.497l-3.649 1.615M41.382 229.663c2.422.4 4.115.8 5.349 1.197M44.59 225.989c.961 1.582 2.164 3.166 1.993 4.746"
     class="tooth-47" />
  <path
     id="path198"
     stroke="#000"
     fill="none"
     d="M29.013 214.35c-.461-2.71-2.525-2.97-.864-8.925.865-4.249 3.347-7.758 8.952-9.838 3.394-.406 6.486-2.436 10.409.023 1.143.838 1.995 1.286 2.746 1.628 1.56 1.363 4.59 1.443 6.076 6.627 0 1.976-.576 2.74.498 6.99.34 1.637 1.331 2.663.206 5.678-1.214 1.394-1.104 2.87-4.846 4.107-1.027.796-9.186 1.547-11.826 1.471-2.64-.075-2.508.681-6.535-2.51-1.596-1.691-3.047-2.378-4.816-5.251z"
     class="tooth-48 tooth-48-parent" />
  <path
     id="path200"
     stroke="#000"
     fill="none"
     d="M47.726 197.731c-3.017-3.775-6.386-2.096-9.815.54-1.95 1.965-2.552 4.036-2.324 6.172.083 1.283.749 2.15 2.223 2.438-.973.457-1.362 1.307-1.346 2.43l1.318 6.493c1.256 2.675 2.254 2.66 3.334 3.5.577.246 1.16.484 1.932.567 1.066-.302 2.133-.487 3.206-3.05-.908-.245 2.863-1.462.087-3.869-.895-.82 2.129-3.48.39-5.677-.891-2.416-1.74-4.504-2.437-5.433 1.88-.257 1.318-1.69 1.94-2.554M42.065 201.338l2.229.504M50.82 206.785c-1.18.447-2.203 1.206-3.941.553M43.584 214.756c1.39-.18 2.429-.772 2.832-2.116M41.007 206.826c1.844-.299 3.875-1.216 5.354-.3M46.842 219.068c1.175-.03 2.285.053 3.644-.304 1.942-1.82 2.639-1.823 3.874-2.612.233-.059 2.68-2.198.91-5.426-.979-1.652-1.216-2.223-.808-3.434-.96-2.824-.44-3.46-.653-5.18"
     class="tooth-48" />
  <text
     id="text388"
     font-family="Sans"
     word-spacing="0"
     letter-spacing="0"
     font-weight="400"
     font-size="10.135"
     style="line-height:125%"
     y="17.284"
     x="120.378">
    <tspan
       id="tspan386"
       y="17.284"
       x="120.378">11</tspan>
  </text>
  <text
     id="text392"
     font-family="Sans"
     word-spacing="0"
     letter-spacing="0"
     font-weight="400"
     font-size="10.135"
     style="line-height:125%"
     y="28.143"
     x="85.63">
    <tspan
       id="tspan390"
       y="28.143"
       x="85.63">12</tspan>
  </text>
  <text
     id="text396"
     font-family="Sans"
     word-spacing="0"
     letter-spacing="0"
     font-weight="400"
     font-size="10.135"
     style="line-height:125%"
     y="43.345"
     x="56.674">
    <tspan
       id="tspan394"
       y="43.345"
       x="56.674">13</tspan>
  </text>
  <text
     id="text400"
     font-family="Sans"
     word-spacing="0"
     letter-spacing="0"
     font-weight="400"
     font-size="10.135"
     style="line-height:125%"
     y="64.338"
     x="42.92">
    <tspan
       id="tspan398"
       y="64.338"
       x="42.92">14</tspan>
  </text>
  <text
     id="text404"
     font-family="Sans"
     word-spacing="0"
     letter-spacing="0"
     font-weight="400"
     font-size="10.135"
     style="line-height:125%"
     y="88.227"
     x="32.785">
    <tspan
       id="tspan402"
       y="88.227"
       x="32.785">15</tspan>
  </text>
  <text
     id="text408"
     font-family="Sans"
     word-spacing="0"
     letter-spacing="0"
     font-weight="400"
     font-size="10.135"
     style="line-height:125%"
     y="110.668"
     x="19.031">
    <tspan
       id="tspan406"
       y="110.668"
       x="19.031">16</tspan>
  </text>
  <text
     id="text412"
     font-family="Sans"
     word-spacing="0"
     letter-spacing="0"
     font-weight="400"
     font-size="10.135"
     style="line-height:125%"
     y="141.072"
     x="12.516">
    <tspan
       id="tspan410"
       y="141.072"
       x="12.516">17</tspan>
  </text>
  <text
     id="text416"
     font-family="Sans"
     word-spacing="0"
     letter-spacing="0"
     font-weight="400"
     font-size="10.135"
     style="line-height:125%"
     y="172.2"
     x="8.896">
    <tspan
       id="tspan414"
       y="172.2"
       x="8.896">18</tspan>
  </text>
  <text
     id="text420"
     font-family="Sans"
     word-spacing="0"
     letter-spacing="0"
     font-weight="400"
     font-size="10.135"
     style="line-height:125%"
     y="17.284"
     x="155.849">
    <tspan
       id="tspan418"
       y="17.284"
       x="155.849">21</tspan>
  </text>
  <text
     id="text424"
     font-family="Sans"
     word-spacing="0"
     letter-spacing="0"
     font-weight="400"
     font-size="10.135"
     style="line-height:125%"
     y="29.591"
     x="192.768">
    <tspan
       id="tspan422"
       y="29.591"
       x="192.768">22</tspan>
  </text>
  <text
     id="text428"
     font-family="Sans"
     word-spacing="0"
     letter-spacing="0"
     font-weight="400"
     font-size="10.135"
     style="line-height:125%"
     y="44.069"
     x="220.277">
    <tspan
       id="tspan426"
       y="44.069"
       x="220.277">23</tspan>
  </text>
  <text
     id="text432"
     font-family="Sans"
     word-spacing="0"
     letter-spacing="0"
     font-weight="400"
     font-size="10.135"
     style="line-height:125%"
     y="64.338"
     x="236.203">
    <tspan
       id="tspan430"
       y="64.338"
       x="236.203">24</tspan>
  </text>
  <text
     id="text436"
     font-family="Sans"
     word-spacing="0"
     letter-spacing="0"
     font-weight="400"
     font-size="10.135"
     style="line-height:125%"
     y="86.779"
     x="247.061">
    <tspan
       id="tspan434"
       y="86.779"
       x="247.061">25</tspan>
  </text>
  <text
     id="text440"
     font-family="Sans"
     word-spacing="0"
     letter-spacing="0"
     font-weight="400"
     font-size="10.135"
     style="line-height:125%"
     y="109.22"
     x="258.644">
    <tspan
       id="tspan438"
       y="109.22"
       x="258.644">26</tspan>
  </text>
  <text
     id="text444"
     font-family="Sans"
     word-spacing="0"
     letter-spacing="0"
     font-weight="400"
     font-size="10.135"
     style="line-height:125%"
     y="139.624"
     x="264.435">
    <tspan
       id="tspan442"
       y="139.624"
       x="264.435">27</tspan>
  </text>
  <text
     id="text448"
     font-family="Sans"
     word-spacing="0"
     letter-spacing="0"
     font-weight="400"
     font-size="10.135"
     style="line-height:125%"
     y="169.304"
     x="268.778">
    <tspan
       id="tspan446"
       y="169.304"
       x="268.778">28</tspan>
  </text>
  <text
     id="text452"
     font-family="Sans"
     word-spacing="0"
     letter-spacing="0"
     font-weight="400"
     font-size="10.135"
     style="line-height:125%"
     y="360.415"
     x="151.506">
    <tspan
       id="tspan450"
       y="360.415"
       x="151.506">31</tspan>
  </text>
  <text
     id="text456"
     font-family="Sans"
     word-spacing="0"
     letter-spacing="0"
     font-weight="400"
     font-size="10.135"
     style="line-height:125%"
     y="355.348"
     x="176.842">
    <tspan
       id="tspan454"
       y="355.348"
       x="176.842">32</tspan>
  </text>
  <text
     id="text460"
     font-family="Sans"
     word-spacing="0"
     letter-spacing="0"
     font-weight="400"
     font-size="10.135"
     style="line-height:125%"
     y="346.661"
     x="202.179">
    <tspan
       id="tspan458"
       y="346.661"
       x="202.179">33</tspan>
  </text>
  <text
     id="text464"
     font-family="Sans"
     word-spacing="0"
     letter-spacing="0"
     font-weight="400"
     font-size="10.135"
     style="line-height:125%"
     y="330.011"
     x="222.448">
    <tspan
       id="tspan462"
       y="330.011"
       x="222.448">34</tspan>
  </text>
  <text
     id="text468"
     font-family="Sans"
     word-spacing="0"
     letter-spacing="0"
     font-weight="400"
     font-size="10.135"
     style="line-height:125%"
     y="309.018"
     x="240.546">
    <tspan
       id="tspan466"
       y="309.018"
       x="240.546">35</tspan>
  </text>
  <text
     id="text472"
     font-family="Sans"
     word-spacing="0"
     letter-spacing="0"
     font-weight="400"
     font-size="10.135"
     style="line-height:125%"
     y="282.957"
     x="257.92">
    <tspan
       id="tspan470"
       y="282.957"
       x="257.92">36</tspan>
  </text>
  <text
     id="text476"
     font-family="Sans"
     word-spacing="0"
     letter-spacing="0"
     font-weight="400"
     font-size="10.135"
     style="line-height:125%"
     y="245.314"
     x="265.159">
    <tspan
       id="tspan474"
       y="245.314"
       x="265.159">37</tspan>
  </text>
  <text
     id="text480"
     font-family="Sans"
     word-spacing="0"
     letter-spacing="0"
     font-weight="400"
     font-size="10.135"
     style="line-height:125%"
     y="214.187"
     x="265.159">
    <tspan
       id="tspan478"
       y="214.187"
       x="265.159">38</tspan>
  </text>
  <text
     id="text484"
     font-family="Sans"
     word-spacing="0"
     letter-spacing="0"
     font-weight="400"
     font-size="10.135"
     style="line-height:125%"
     y="360.415"
     x="128.341">
    <tspan
       id="tspan482"
       y="360.415"
       x="128.341">41</tspan>
  </text>
  <text
     id="text488"
     font-family="Sans"
     word-spacing="0"
     letter-spacing="0"
     font-weight="400"
     font-size="10.135"
     style="line-height:125%"
     y="356.796"
     x="100.109">
    <tspan
       id="tspan486"
       y="356.796"
       x="100.109">42</tspan>
  </text>
  <text
     id="text492"
     font-family="Sans"
     word-spacing="0"
     letter-spacing="0"
     font-weight="400"
     font-size="10.135"
     style="line-height:125%"
     y="347.385"
     x="76.944">
    <tspan
       id="tspan490"
       y="347.385"
       x="76.944">43</tspan>
  </text>
  <text
     id="text496"
     font-family="Sans"
     word-spacing="0"
     letter-spacing="0"
     font-weight="400"
     font-size="10.135"
     style="line-height:125%"
     y="330.011"
     x="55.95">
    <tspan
       id="tspan494"
       y="330.011"
       x="55.95">44</tspan>
  </text>
  <text
     id="text500"
     font-family="Sans"
     word-spacing="0"
     letter-spacing="0"
     font-weight="400"
     font-size="10.135"
     style="line-height:125%"
     y="310.466"
     x="38.577">
    <tspan
       id="tspan498"
       y="310.466"
       x="38.577">45</tspan>
  </text>
  <text
     id="text504"
     font-family="Sans"
     word-spacing="0"
     letter-spacing="0"
     font-weight="400"
     font-size="10.135"
     style="line-height:125%"
     y="287.301"
     x="20.479">
    <tspan
       id="tspan502"
       y="287.301"
       x="20.479">46</tspan>
  </text>
  <text
     id="text508"
     font-family="Sans"
     word-spacing="0"
     letter-spacing="0"
     font-weight="400"
     font-size="10.135"
     style="line-height:125%"
     y="244.59"
     x="12.516">
    <tspan
       id="tspan506"
       y="244.59"
       x="12.516">47</tspan>
  </text>
  <text
     id="text512"
     font-family="Sans"
     word-spacing="0"
     letter-spacing="0"
     font-weight="400"
     font-size="10.135"
     style="line-height:125%"
     y="214.187"
     x="12.516">
    <tspan
       id="tspan510"
       y="214.187"
       x="12.516">48</tspan>
  </text>
  <ellipse
     ry="13.40733"
     rx="13.32548"
     cy="31.839413"
     cx="128.78391"
     id="tooth-11-circle"
     style="opacity:0;fill:none;fill-opacity:1;stroke-width:0.80059952" />
  <ellipse
     ry="13.40733"
     rx="13.32548"
     cy="31.368872"
     cx="159.87306"
     id="tooth-12-circle"
     style="display:none;opacity:0.50240048;fill:#000000;fill-opacity:1;stroke-width:0.80059952" />
  <ellipse
     ry="13.40733"
     rx="13.32548"
     cy="31.923986"
     cx="159.31795"
     id="tooth-21-circle"
     style="opacity:0;fill:none;fill-opacity:1;stroke-width:0.80059952" />
  <ellipse
     ry="13.40733"
     rx="13.32548"
     cy="39.695591"
     cx="185.96346"
     id="tooth-22-circle"
     style="opacity:0;fill:none;fill-opacity:1;stroke-width:0.80059952" />
  <ellipse
     ry="11.150309"
     rx="11.264722"
     cy="51.45113"
     cx="207.47534"
     id="tooth-23-circle"
     style="opacity:0;fill:none;fill-opacity:1;stroke-width:0.6712842" />
  <ellipse
     ry="9.4820757"
     rx="15.288108"
     cy="70.752708"
     cx="218.53854"
     id="tooth-24-circle"
     style="opacity:0;fill:none;fill-opacity:1;stroke-width:0.72115946" />
  <ellipse
     ry="9.4820757"
     rx="15.288108"
     cy="90.67337"
     cx="228.4498"
     id="tooth-25-circle"
     style="opacity:0;fill:none;fill-opacity:1;stroke-width:0.72115946" />
  <ellipse
     ry="14.8793"
     rx="16.661947"
     cy="114.51928"
     cx="237.28163"
     id="tooth-26-circle"
     style="opacity:0;fill:none;fill-opacity:1;stroke-width:0.94309807" />
  <ellipse
     ry="14.8793"
     rx="16.661947"
     cy="143.46805"
     cx="243.95454"
     id="tooth-27-circle"
     style="opacity:0;fill:none;fill-opacity:1;stroke-width:0.94309807" />
  <ellipse
     ry="13.603592"
     rx="17.152603"
     cy="172.41679"
     cx="247.58542"
     id="tooth-28-circle"
     style="opacity:0;fill:none;fill-opacity:1;stroke-width:0.91494411" />
  <ellipse
     ry="12.818542"
     rx="14.306794"
     cy="208.82353"
     cx="246.40784"
     id="tooth-38-circle"
     style="opacity:0;fill:none;fill-opacity:1;stroke-width:0.81113511" />
  <ellipse
     ry="15.958744"
     rx="17.250734"
     cy="237.67413"
     cx="244.54333"
     id="tooth-37-circle"
     style="opacity:0;fill:none;fill-opacity:1;stroke-width:0.99381584" />
  <ellipse
     ry="15.958744"
     rx="17.250734"
     cy="270.0575"
     cx="236.8891"
     id="tooth-36-circle"
     style="opacity:0;fill:none;fill-opacity:1;stroke-width:0.99381584" />
  <ellipse
     ry="10.365256"
     rx="12.442298"
     cy="295.27722"
     cx="224.62267"
     id="tooth-35-circle"
     style="opacity:0;fill:none;fill-opacity:1;stroke-width:0.68021011" />
  <ellipse
     ry="10.365256"
     rx="12.442298"
     cy="313.03903"
     cx="209.41231"
     id="tooth-34-circle"
     style="opacity:0;fill:none;fill-opacity:1;stroke-width:0.68021011" />
  <ellipse
     ry="10.365256"
     rx="10.087146"
     cy="328.93634"
     cx="193.90756"
     id="tooth-33-circle"
     style="opacity:0;fill:none;fill-opacity:1;stroke-width:0.61245888" />
  <ellipse
     ry="8.9914169"
     rx="9.1058321"
     cy="336.19803"
     cx="174.67383"
     id="tooth-32-circle"
     style="opacity:0;fill:none;fill-opacity:1;stroke-width:0.54197174" />
  <ellipse
     ry="8.9914169"
     rx="9.1058321"
     cy="340.71207"
     cx="155.63632"
     id="tooth-31-circle"
     style="opacity:0;fill:none;fill-opacity:1;stroke-width:0.54197174" />
  <ellipse
     ry="8.9914169"
     rx="9.1058321"
     cy="341.30087"
     cx="134.24368"
     id="tooth-41-circle"
     style="opacity:0;fill:none;fill-opacity:1;stroke-width:0.54197174" />
  <ellipse
     ry="8.9914169"
     rx="9.1058321"
     cy="337.57187"
     cx="114.42117"
     id="tooth-42-circle"
     style="opacity:0;fill:none;fill-opacity:1;stroke-width:0.54197174" />
  <ellipse
     ry="10.267124"
     rx="10.185277"
     cy="329.03445"
     cx="94.500496"
     id="tooth-43-circle"
     style="opacity:0;fill:none;fill-opacity:1;stroke-width:0.61251056" />
  <ellipse
     ry="10.65965"
     rx="10.675934"
     cy="313.62781"
     cx="77.818169"
     id="tooth-44-circle"
     style="opacity:0;fill:none;fill-opacity:1;stroke-width:0.63896513" />
  <ellipse
     ry="10.65965"
     rx="12.736692"
     cy="295.3754"
     cx="63.687252"
     id="tooth-45-circle"
     style="opacity:0;fill:none;fill-opacity:1;stroke-width:0.69791502" />
  <ellipse
     ry="15.860612"
     rx="16.563816"
     cy="270.15564"
     cx="51.518963"
     id="tooth-46-circle"
     style="opacity:0;fill:none;fill-opacity:1;stroke-width:0.97082937" />
  <ellipse
     ry="15.860612"
     rx="16.563816"
     cy="237.67415"
     cx="43.766586"
     id="tooth-47-circle"
     style="opacity:0;fill:none;fill-opacity:1;stroke-width:0.97082937" />
  <ellipse
     ry="12.327883"
     rx="14.306795"
     cy="208.23474"
     cx="42.490879"
     id="tooth-48-circle"
     style="opacity:0;fill:none;fill-opacity:1;stroke-width:0.79545969" />
  <ellipse
     ry="13.407328"
     rx="17.643261"
     cy="171.63176"
     cx="41.607697"
     id="tooth-18-circle"
     style="opacity:0;fill:none;fill-opacity:1;stroke-width:0.92121989" />
  <ellipse
     ry="14.192378"
     rx="16.07316"
     cy="142.87926"
     cx="43.570328"
     id="tooth-17-circle"
     style="opacity:0;fill:none;fill-opacity:1;stroke-width:0.90465081" />
  <ellipse
     ry="14.192378"
     rx="16.07316"
     cy="114.2249"
     cx="52.009621"
     id="tooth-16-circle"
     style="opacity:0;fill:none;fill-opacity:1;stroke-width:0.90465081" />
  <ellipse
     ry="10.168992"
     rx="13.816139"
     cy="90.182716"
     cx="61.724621"
     id="tooth-15-circle"
     style="opacity:0;fill:none;fill-opacity:1;stroke-width:0.70996195" />
  <ellipse
     ry="10.168992"
     rx="13.816139"
     cy="71.047104"
     cx="71.24337"
     id="tooth-14-circle"
     style="opacity:0;fill:none;fill-opacity:1;stroke-width:0.70996195" />
  <ellipse
     ry="10.561518"
     rx="10.28341"
     cy="51.617096"
     cx="81.056503"
     id="tooth-13-circle"
     style="opacity:0;fill:none;fill-opacity:1;stroke-width:0.62421542" />
  <ellipse
     ry="11.4447"
     rx="11.166593"
     cy="40.135723"
     cx="102.54727"
     id="tooth-11-circle-6-7-5-3-5-6-2-9-1-2-7-0-9-3-6-0-6-2-6-1-8-7-9-2-0-2-3-7-5-9-2"
     style="opacity:0;fill:none;fill-opacity:1;stroke-width:0.67711943" />
</svg>
